<svg aria-hidden="true" style="position: absolute; width: 0; height: 0; overflow: hidden;" version="1.1" xmlns="http://www.w3.org/2000/svg" xmlns:xlink="http://www.w3.org/1999/xlink">
<defs>
<symbol id="icon-controller-fast-backward" viewBox="0 0 20 20">
<path d="M17.959 4.571l-7.203 4.949c0 0-0.279 0.201-0.279 0.481s0.279 0.479 0.279 0.479l7.203 4.951c0.572 0.38 1.041 0.099 1.041-0.626v-9.609c0-0.727-0.469-1.008-1.041-0.625zM8.883 4.571l-7.203 4.949c0 0-0.279 0.201-0.279 0.481s0.279 0.479 0.279 0.479l7.203 4.951c0.572 0.381 1.041 0.1 1.041-0.625v-9.61c0-0.727-0.469-1.008-1.041-0.625z"></path>
</symbol>
<symbol id="icon-controller-fast-forward" viewBox="0 0 20 20">
<path d="M9.244 9.52l-7.203-4.949c-0.572-0.383-1.041-0.102-1.041 0.625v9.609c0 0.725 0.469 1.006 1.041 0.625l7.203-4.951c0 0 0.279-0.199 0.279-0.478s-0.279-0.481-0.279-0.481zM18.6 10.001c0 0.279-0.279 0.478-0.279 0.478l-7.203 4.951c-0.572 0.381-1.041 0.1-1.041-0.625v-9.609c0-0.727 0.469-1.008 1.041-0.625l7.202 4.949c0 0 0.28 0.201 0.28 0.481z"></path>
</symbol>
<symbol id="icon-controller-jump-to-start" viewBox="0 0 20 20">
<path d="M14.959 4.571l-7.203 4.949c0 0-0.279 0.201-0.279 0.481s0.279 0.479 0.279 0.479l7.203 4.951c0.572 0.38 1.041 0.099 1.041-0.626v-9.609c0-0.727-0.469-1.008-1.041-0.625zM6 4h-1c-0.553 0-1 0.048-1 0.6v10.8c0 0.552 0.447 0.6 1 0.6h1c0.553 0 1-0.048 1-0.6v-10.8c0-0.552-0.447-0.6-1-0.6z"></path>
</symbol>
<symbol id="icon-controller-next" viewBox="0 0 20 20">
<path d="M12.244 9.52l-7.203-4.949c-0.572-0.383-1.041-0.102-1.041 0.625v9.609c0 0.725 0.469 1.006 1.041 0.625l7.203-4.951c0 0 0.279-0.199 0.279-0.478s-0.279-0.481-0.279-0.481zM14 4h1c0.553 0 1 0.048 1 0.6v10.8c0 0.552-0.447 0.6-1 0.6h-1c-0.553 0-1-0.048-1-0.6v-10.8c0-0.552 0.447-0.6 1-0.6z"></path>
</symbol>
<symbol id="icon-controller-paus" viewBox="0 0 20 20">
<path d="M15 3h-2c-0.553 0-1 0.048-1 0.6v12.8c0 0.552 0.447 0.6 1 0.6h2c0.553 0 1-0.048 1-0.6v-12.8c0-0.552-0.447-0.6-1-0.6zM7 3h-2c-0.553 0-1 0.048-1 0.6v12.8c0 0.552 0.447 0.6 1 0.6h2c0.553 0 1-0.048 1-0.6v-12.8c0-0.552-0.447-0.6-1-0.6z"></path>
</symbol>
<symbol id="icon-controller-stop" viewBox="0 0 20 20">
<path d="M16 4.995v9.808c0 0.661-0.536 1.197-1.196 1.197h-9.807c-0.551 0-0.997-0.446-0.997-0.997v-9.807c0-0.66 0.536-1.196 1.196-1.196h9.808c0.55 0 0.996 0.446 0.996 0.995z"></path>
</symbol>
<symbol id="icon-sound-mute" viewBox="0 0 20 20">
<path d="M14.201 9.194c1.389 1.883 1.818 3.517 1.559 3.777-0.26 0.258-1.893-0.17-3.778-1.559l-5.526 5.527c4.186 1.838 9.627-2.018 10.605-2.996 0.925-0.922 0.097-3.309-1.856-5.754l-1.004 1.005zM8.667 7.941c-1.099-1.658-1.431-3.023-1.194-3.26 0.233-0.234 1.6 0.096 3.257 1.197l1.023-1.025c-2.264-1.674-4.395-2.334-5.257-1.469-0.928 0.926-4.448 5.877-3.231 9.957l5.402-5.4zM18.521 1.478c-0.39-0.391-1.023-0.391-1.414 0l-15.629 15.63c-0.391 0.391-0.391 1.024 0 1.414s1.023 0.391 1.414 0l15.629-15.63c0.391-0.391 0.391-1.024 0-1.414z"></path>
</symbol>
<symbol id="icon-sound" viewBox="0 0 20 20">
<path d="M5.312 4.566c-1.122 1.119-6.027 8.115-1.789 12.352 4.236 4.238 11.23-0.668 12.354-1.789 1.121-1.119-0.335-4.395-3.252-7.312-2.919-2.919-6.191-4.376-7.313-3.251zM14.576 14.156c-0.332 0.328-2.895-0.457-5.364-2.928-2.467-2.469-3.256-5.033-2.924-5.363 0.328-0.332 2.894 0.457 5.36 2.926 2.471 2.467 3.258 5.033 2.928 5.365zM15.434 5.982l1.904-1.906c0.391-0.391 0.391-1.023 0-1.414s-1.023-0.391-1.414 0l-1.904 1.906c-0.391 0.391-0.391 1.024 0 1.414s1.023 0.39 1.414 0zM11.124 3.8c0.483 0.268 1.091 0.095 1.36-0.388l1.087-1.926c0.268-0.483 0.095-1.091-0.388-1.36-0.482-0.269-1.091-0.095-1.36 0.388l-1.087 1.926c-0.268 0.484-0.094 1.093 0.388 1.36zM19.872 6.816c-0.267-0.483-0.877-0.657-1.36-0.388l-1.94 1.061c-0.483 0.268-0.657 0.878-0.388 1.36 0.268 0.483 0.877 0.657 1.36 0.388l1.94-1.061c0.483-0.269 0.657-0.877 0.388-1.36z"></path>
</symbol>
<symbol id="icon-triangle-down" viewBox="0 0 20 20">
<path d="M5 6h10l-5 9-5-9z"></path>
</symbol>
<symbol id="icon-triangle-up" viewBox="0 0 20 20">
<path d="M15 14h-10l5-9 5 9z"></path>
</symbol>
<symbol id="icon-beamed-note" viewBox="0 0 20 20">
<path d="M17 1l-0.002 13c0 1.243-1.301 3-3.748 3-1.243 0-2.25-0.653-2.25-1.875 0-1.589 1.445-2.55 3-2.55 0.432 0 0.754 0.059 1 0.123v-7.334l-7 1.273v9.363h-0.002c0 1.243-1.301 3-3.748 3-1.243 0-2.25-0.653-2.25-1.875 0-1.589 1.445-2.55 3-2.55 0.432 0 0.754 0.059 1 0.123v-11.698l11-2z"></path>
</symbol>
<symbol id="icon-home" viewBox="0 0 20 20">
<path d="M18.672 11h-1.672v6c0 0.445-0.194 1-1 1h-4v-6h-4v6h-4c-0.806 0-1-0.555-1-1v-6h-1.672c-0.598 0-0.47-0.324-0.060-0.748l8.024-8.032c0.195-0.202 0.451-0.302 0.708-0.312 0.257 0.010 0.513 0.109 0.708 0.312l8.023 8.031c0.411 0.425 0.539 0.749-0.059 0.749z"></path>
</symbol>
<symbol id="icon-log-out" viewBox="0 0 20 20">
<path d="M19 10l-6-5v3h-7v4h7v3l6-5zM3 3h8v-2h-8c-1.1 0-2 0.9-2 2v14c0 1.1 0.9 2 2 2h8v-2h-8v-14z"></path>
</symbol>
<symbol id="icon-login" viewBox="0 0 20 20">
<path d="M14 10l-6-5v3h-7v4h7v3l6-5zM17 17h-8v2h8c1.1 0 2-0.9 2-2v-14c0-1.1-0.9-2-2-2h-8v2h8v14z"></path>
</symbol>
<symbol id="icon-loop" viewBox="0 0 20 20">
<path d="M20 7v7c0 1.103-0.896 2-2 2h-16c-1.104 0-2-0.897-2-2v-7c0-1.104 0.896-2 2-2h7v-2l4 3.5-4 3.5v-2h-6v5h14v-5h-3v-3h4c1.104 0 2 0.896 2 2z"></path>
</symbol>
<symbol id="icon-magnifying-glass" viewBox="0 0 20 20">
<path d="M17.545 15.467l-3.779-3.779c0.57-0.935 0.898-2.035 0.898-3.21 0-3.417-2.961-6.377-6.378-6.377s-6.186 2.769-6.186 6.186c0 3.416 2.961 6.377 6.377 6.377 1.137 0 2.2-0.309 3.115-0.844l3.799 3.801c0.372 0.371 0.975 0.371 1.346 0l0.943-0.943c0.371-0.371 0.236-0.84-0.135-1.211zM4.004 8.287c0-2.366 1.917-4.283 4.282-4.283s4.474 2.107 4.474 4.474c0 2.365-1.918 4.283-4.283 4.283s-4.473-2.109-4.473-4.474z"></path>
</symbol>
<symbol id="icon-menu" viewBox="0 0 20 20">
<path d="M16.4 9h-12.8c-0.552 0-0.6 0.447-0.6 1s0.048 1 0.6 1h12.8c0.552 0 0.6-0.447 0.6-1s-0.048-1-0.6-1zM16.4 13h-12.8c-0.552 0-0.6 0.447-0.6 1s0.048 1 0.6 1h12.8c0.552 0 0.6-0.447 0.6-1s-0.048-1-0.6-1zM3.6 7h12.8c0.552 0 0.6-0.447 0.6-1s-0.048-1-0.6-1h-12.8c-0.552 0-0.6 0.447-0.6 1s0.048 1 0.6 1z"></path>
</symbol>
<symbol id="icon-minus" viewBox="0 0 20 20">
<path d="M16 10c0 0.553-0.048 1-0.601 1h-10.798c-0.552 0-0.601-0.447-0.601-1s0.049-1 0.601-1h10.799c0.552 0 0.6 0.447 0.6 1z"></path>
</symbol>
<symbol id="icon-music" viewBox="0 0 20 20">
<path d="M16 1h-12c-0.553 0-1 0.447-1 1v16c0 0.552 0.447 1 1 1h12c0.553 0 1-0.448 1-1v-16c0-0.552-0.447-1-1-1zM12.795 11.519c-0.185 0.382-0.373 0.402-0.291 0 0.211-1.039 0.068-3.271-1.504-3.519v4.75c0 0.973-0.448 1.82-1.639 2.203-1.156 0.369-2.449-0.016-2.752-0.846s0.377-1.84 1.518-2.256c0.637-0.232 1.375-0.292 1.873-0.101v-6.75h1c0 2.355 4.065 1.839 1.795 6.519z"></path>
</symbol>
<symbol id="icon-note" viewBox="0 0 20 20">
<path d="M14.971 9.438c-0.422 0.656-0.646 0.375-0.52 0 0.336-0.993 0.348-4.528-2.451-4.969l-0.002 11.531c0 1.657-1.735 4-4.998 4-1.657 0-3-0.871-3-2.5 0-2.119 1.927-3.4 4-3.4 1.328 0 2 0.4 2 0.4v-14.5h2c0 2.676 5.986 4.744 2.971 9.438z"></path>
</symbol>
<symbol id="icon-plus" viewBox="0 0 20 20">
<path d="M16 10c0 0.553-0.048 1-0.601 1h-4.399v4.399c0 0.552-0.447 0.601-1 0.601s-1-0.049-1-0.601v-4.399h-4.399c-0.552 0-0.601-0.447-0.601-1s0.049-1 0.601-1h4.399v-4.399c0-0.553 0.447-0.601 1-0.601s1 0.048 1 0.601v4.399h4.399c0.553 0 0.601 0.447 0.601 1z"></path>
</symbol>
<symbol id="icon-shuffle" viewBox="0 0 20 20">
<path d="M15.093 6.694h0.92v2.862l3.987-4.024-3.988-4.025v2.387h-0.92c-3.694 0-5.776 2.738-7.614 5.152-1.652 2.172-3.080 4.049-5.386 4.049h-2.092v2.799h2.093c3.694 0 5.776-2.736 7.614-5.152 1.652-2.173 3.080-4.048 5.386-4.048zM5.41 8.458c0.158-0.203 0.316-0.412 0.477-0.623 0.39-0.514 0.804-1.055 1.252-1.596-1.322-1.234-2.915-2.144-5.046-2.144h-2.093v2.799h2.093c1.327 0 2.362 0.623 3.317 1.564zM16.012 13.294h-0.92c-1.407 0-2.487-0.701-3.491-1.738-0.1 0.131-0.201 0.264-0.303 0.397-0.441 0.58-0.915 1.201-1.439 1.818 1.356 1.324 3 2.324 5.232 2.324h0.92v2.398l3.989-4.025-3.988-4.025v2.851z"></path>
</symbol>
<symbol id="icon-user" viewBox="0 0 20 20">
<path d="M7.725 2.146c-1.016 0.756-1.289 1.953-1.239 2.59 0.064 0.779 0.222 1.793 0.222 1.793s-0.313 0.17-0.313 0.854c0.109 1.717 0.683 0.976 0.801 1.729 0.284 1.814 0.933 1.491 0.933 2.481 0 1.649-0.68 2.42-2.803 3.334-2.13 0.918-4.326 2.073-4.326 4.073v1h18v-1c0-2-2.197-3.155-4.328-4.072-2.123-0.914-2.801-1.684-2.801-3.334 0-0.99 0.647-0.667 0.932-2.481 0.119-0.753 0.692-0.012 0.803-1.729 0-0.684-0.314-0.854-0.314-0.854s0.158-1.014 0.221-1.793c0.065-0.817-0.398-2.561-2.3-3.096-0.333-0.34-0.558-0.881 0.466-1.424-2.24-0.105-2.761 1.067-3.954 1.929z"></path>
</symbol>
</defs>
</svg>
