<svg aria-hidden="true" style="position: absolute; width: 0; height: 0; overflow: hidden;" version="1.1" xmlns="http://www.w3.org/2000/svg" xmlns:xlink="http://www.w3.org/1999/xlink">
<defs>
<symbol id="icon-pause_circle_outline" viewBox="0 0 24 24">
<path d="M12.984 15.984v-7.969h2.016v7.969h-2.016zM12 20.016q3.281 0 5.648-2.367t2.367-5.648-2.367-5.648-5.648-2.367-5.648 2.367-2.367 5.648 2.367 5.648 5.648 2.367zM12 2.016q4.125 0 7.055 2.93t2.93 7.055-2.93 7.055-7.055 2.93-7.055-2.93-2.93-7.055 2.93-7.055 7.055-2.93zM9 15.984v-7.969h2.016v7.969h-2.016z"></path>
</symbol>
<symbol id="icon-play_circle_outline" viewBox="0 0 24 24">
<path d="M12 20.016q3.281 0 5.648-2.367t2.367-5.648-2.367-5.648-5.648-2.367-5.648 2.367-2.367 5.648 2.367 5.648 5.648 2.367zM12 2.016q4.125 0 7.055 2.93t2.93 7.055-2.93 7.055-7.055 2.93-7.055-2.93-2.93-7.055 2.93-7.055 7.055-2.93zM9.984 16.5v-9l6 4.5z"></path>
</symbol>
<symbol id="icon-stop" viewBox="0 0 24 24">
<path d="M6 6h12v12h-12v-12z"></path>
</symbol>
<symbol id="icon-volume_off" viewBox="0 0 24 24">
<path d="M12 3.984v4.219l-2.109-2.109zM4.266 3l16.734 16.734-1.266 1.266-2.063-2.063q-1.547 1.313-3.656 1.828v-2.063q1.172-0.328 2.25-1.172l-4.266-4.266v6.75l-5.016-5.016h-3.984v-6h4.734l-4.734-4.734zM18.984 12q0-2.391-1.383-4.219t-3.586-2.484v-2.063q3.047 0.656 5.016 3.117t1.969 5.648q0 2.203-1.031 4.172l-1.5-1.547q0.516-1.266 0.516-2.625zM16.5 12q0 0.422-0.047 0.609l-2.438-2.438v-2.203q1.031 0.516 1.758 1.688t0.727 2.344z"></path>
</symbol>
<symbol id="icon-volume_up" viewBox="0 0 24 24">
<path d="M14.016 3.234q3.047 0.656 5.016 3.117t1.969 5.648-1.969 5.648-5.016 3.117v-2.063q2.203-0.656 3.586-2.484t1.383-4.219-1.383-4.219-3.586-2.484v-2.063zM16.5 12q0 2.813-2.484 4.031v-8.063q1.031 0.516 1.758 1.688t0.727 2.344zM3 9h3.984l5.016-5.016v16.031l-5.016-5.016h-3.984v-6z"></path>
</symbol>
<symbol id="icon-forward_30" viewBox="0 0 24 24">
<path d="M3.984 12.984q0-3.281 2.344-5.625t5.672-2.344v-4.031l5.016 5.016-5.016 5.016v-4.031q-2.438 0-4.219 1.758t-1.781 4.242 1.781 4.242 4.219 1.758 4.219-1.758 1.781-4.242h2.016q0 3.328-2.367 5.672t-5.648 2.344-5.648-2.344-2.367-5.672zM13.313 15.188q0 0.328 0.469 0.328 0.234 0 0.328-0.094l0.188-0.234q0.094-0.188 0.094-0.281v-2.016q-0.094-0.188-0.094-0.281t-0.211-0.211-0.305-0.117q-0.141 0-0.281 0.141l-0.188 0.188q-0.094 0.188-0.094 0.281v2.016q0.094 0.188 0.094 0.281zM15.281 14.203q0 0.609-0.094 0.797l-0.281 0.609q-0.328 0.281-0.516 0.281-0.094 0-0.305 0.047t-0.305 0.047q-0.328 0-1.078-0.375-0.094-0.047-0.281-0.609-0.141-0.422-0.141-0.797v-0.703q0-0.516 0.141-0.797l0.281-0.609q0.328-0.281 0.516-0.281 0.094 0 0.281-0.047t0.281-0.047q0.422 0 0.609 0.094 0.094 0.047 0.258 0.141t0.258 0.141 0.281 0.609q0.094 0.281 0.094 0.797v0.703zM9.984 13.5q0.703 0 0.703-0.609v-0.188q-0.094-0.094-0.094-0.188t-0.188-0.094h-0.516q-0.094 0.094-0.188 0.094t-0.094 0.188v0.188h-1.031q0-0.375 0.258-0.727t0.586-0.352q0.047 0 0.234-0.047t0.234-0.047q0.563 0 1.125 0.281 0.375 0.188 0.375 0.891v0.328q-0.094 0.188-0.094 0.281 0 0.188-0.188 0.188-0.094 0-0.328 0.234 0.422 0.234 0.516 0.375 0.188 0.375 0.188 0.609 0 0.422-0.094 0.516-0.047 0.047-0.141 0.188t-0.141 0.188q-0.188 0.188-0.516 0.188-0.094 0-0.305 0.047t-0.305 0.047q-0.375 0-0.469-0.094-0.047-0.047-0.234-0.094t-0.281-0.094q-0.422-0.234-0.422-0.984h0.844v0.188q0.094 0.094 0.094 0.188t0.188 0.094h0.516q0.094-0.094 0.188-0.094t0.094-0.188v-0.516q-0.094-0.094-0.094-0.188t-0.188-0.094h-0.609v-0.703h0.375z"></path>
</symbol>
<symbol id="icon-replay_10" viewBox="0 0 24 24">
<path d="M13.219 15.188q0 0.328 0.469 0.328 0.234 0 0.328-0.094l0.188-0.234q0.094-0.188 0.094-0.281v-2.016q-0.094-0.188-0.094-0.281t-0.211-0.211-0.305-0.117q-0.141 0-0.281 0.141l-0.188 0.188q-0.141 0.188-0.141 0.281v2.016q0.141 0.188 0.141 0.281zM15.188 14.203q0 0.609-0.094 0.797l-0.281 0.609q-0.328 0.281-0.516 0.281-0.094 0-0.305 0.047t-0.305 0.047q-0.422 0-0.609-0.094-0.094-0.047-0.234-0.141t-0.234-0.141q-0.422-0.234-0.422-1.406v-0.703q0-0.609 0.094-0.797l0.328-0.609q0.281-0.281 0.469-0.281 0.094 0 0.305-0.047t0.305-0.047q0.422 0 0.609 0.094 0.094 0.047 0.258 0.141t0.258 0.141 0.281 0.609q0.094 0.281 0.094 0.797v0.703zM10.922 15.984h-0.938v-3.281l-0.984 0.281v-0.703l1.781-0.563h0.141v4.266zM12 5.016q3.328 0 5.672 2.344t2.344 5.625q0 3.328-2.367 5.672t-5.648 2.344-5.648-2.344-2.367-5.672h2.016q0 2.484 1.781 4.242t4.219 1.758 4.219-1.758 1.781-4.242-1.781-4.242-4.219-1.758v4.031l-5.016-5.016 5.016-5.016v4.031z"></path>
</symbol>
<symbol id="icon-arrow_drop_down" viewBox="0 0 24 24">
<path d="M6.984 9.984h10.031l-5.016 5.016z"></path>
</symbol>
<symbol id="icon-arrow_drop_up" viewBox="0 0 24 24">
<path d="M6.984 14.016l5.016-5.016 5.016 5.016h-10.031z"></path>
</symbol>
<symbol id="icon-menu" viewBox="0 0 24 24">
<path d="M3 6h18v2.016h-18v-2.016zM3 12.984v-1.969h18v1.969h-18zM3 18v-2.016h18v2.016h-18z"></path>
</symbol>
<symbol id="icon-person" viewBox="0 0 24 24">
<path d="M12 14.016q2.531 0 5.273 1.102t2.742 2.883v2.016h-16.031v-2.016q0-1.781 2.742-2.883t5.273-1.102zM12 12q-1.641 0-2.813-1.172t-1.172-2.813 1.172-2.836 2.813-1.195 2.813 1.195 1.172 2.836-1.172 2.813-2.813 1.172z"></path>
</symbol>
<symbol id="icon-exit_to_app" viewBox="0 0 24 24">
<path d="M18.984 3q0.797 0 1.406 0.609t0.609 1.406v13.969q0 0.797-0.609 1.406t-1.406 0.609h-13.969q-0.844 0-1.43-0.586t-0.586-1.43v-3.984h2.016v3.984h13.969v-13.969h-13.969v3.984h-2.016v-3.984q0-0.844 0.586-1.43t1.43-0.586h13.969zM10.078 15.609l2.578-2.625h-9.656v-1.969h9.656l-2.578-2.625 1.406-1.406 5.016 5.016-5.016 5.016z"></path>
</symbol>
<symbol id="icon-home" viewBox="0 0 24 24">
<path d="M9.984 20.016h-4.969v-8.016h-3l9.984-9 9.984 9h-3v8.016h-4.969v-6h-4.031v6z"></path>
</symbol>
<symbol id="icon-search" viewBox="0 0 24 24">
<path d="M9.516 14.016q1.875 0 3.188-1.313t1.313-3.188-1.313-3.188-3.188-1.313-3.188 1.313-1.313 3.188 1.313 3.188 3.188 1.313zM15.516 14.016l4.969 4.969-1.5 1.5-4.969-4.969v-0.797l-0.281-0.281q-1.781 1.547-4.219 1.547-2.719 0-4.617-1.875t-1.898-4.594 1.898-4.617 4.617-1.898 4.594 1.898 1.875 4.617q0 0.984-0.469 2.227t-1.078 1.992l0.281 0.281h0.797z"></path>
</symbol>
<symbol id="icon-podcast" viewBox="0 0 32 32">
<path d="M32 16c0-8.837-7.163-16-16-16s-16 7.163-16 16c0 6.877 4.339 12.739 10.428 15.002l-0.428 0.998h12l-0.428-0.998c6.089-2.263 10.428-8.125 10.428-15.002zM15.212 19.838c-0.713-0.306-1.212-1.014-1.212-1.838 0-1.105 0.895-2 2-2s2 0.895 2 2c0 0.825-0.499 1.533-1.212 1.839l-0.788-1.839-0.788 1.838zM16.821 19.915c1.815-0.379 3.179-1.988 3.179-3.915 0-2.209-1.791-4-4-4s-4 1.791-4 4c0 1.928 1.364 3.535 3.18 3.913l-2.332 5.441c-2.851-1.223-4.848-4.056-4.848-7.355 0-4.418 3.582-8.375 8-8.375s8 3.957 8 8.375c0 3.299-1.997 6.131-4.848 7.355l-2.331-5.439zM21.514 30.866l-2.31-5.39c3.951-1.336 6.796-5.073 6.796-9.476 0-5.523-4.477-10-10-10s-10 4.477-10 10c0 4.402 2.845 8.14 6.796 9.476l-2.31 5.39c-4.987-2.14-8.481-7.095-8.481-12.866 0-7.729 6.266-14.37 13.995-14.37s13.995 6.641 13.995 14.37c0 5.771-3.494 10.726-8.481 12.866z"></path>
</symbol>
</defs>
</svg>
